HIERARCHY
ROOT Hips
{
	OFFSET 0.000000 0.000000 0.000000
	CHANNELS 6 Xposition Yposition Zposition Xrotation Yrotation Zrotation
	JOINT LeftUpLeg
	{
		OFFSET 0.098683 0.000000 0.000000
		CHANNELS 3 Xrotation Yrotation Zrotation
		JOINT LeftLeg
		{
			OFFSET 0.000000 -0.424685 0.000000
			CHANNELS 3 Xrotation Yrotation Zrotation
			JOINT LeftFoot
			{
				OFFSET 0.000000 -0.416921 0.000000
				CHANNELS 3 Xrotation Yrotation Zrotation
				JOINT LeftToeBase
				{
					OFFSET 0.000000 -0.041518 0.154948
					CHANNELS 3 Xrotation Yrotation Zrotation
					End Site
					{
						OFFSET 0.000000 0.000000 0.079842
					}
				}
			}
		}
	}
	JOINT RightUpLeg
	{
		OFFSET -0.098683 0.000000 0.000000
		CHANNELS 3 Xrotation Yrotation Zrotation
		JOINT RightLeg
		{
			OFFSET 0.000000 -0.424685 0.000000
			CHANNELS 3 Xrotation Yrotation Zrotation
			JOINT RightFoot
			{
				OFFSET 0.000000 -0.416921 0.000000
				CHANNELS 3 Xrotation Yrotation Zrotation
				JOINT RightToeBase
				{
					OFFSET 0.000000 -0.041518 0.154948
					CHANNELS 3 Xrotation Yrotation Zrotation
					End Site
					{
						OFFSET 0.000000 0.000000 0.079842
					}
				}
			}
		}
	}
	JOINT Spine
	{
		OFFSET 0.000000 0.001065 0.000000
		CHANNELS 3 Xrotation Yrotation Zrotation
		JOINT Spine1
		{
			OFFSET 0.000000 0.277114 0.000000
			CHANNELS 3 Xrotation Yrotation Zrotation
			JOINT Neck
			{
				OFFSET 0.000000 0.211639 0.000000
				CHANNELS 3 Xrotation Yrotation Zrotation
				JOINT Head
				{
					OFFSET 0.000000 0.186769 0.000000
					CHANNELS 3 Xrotation Yrotation Zrotation
					End Site
					{
						OFFSET 0.000000 0.122425 0.000000
					}
				}
			}
			JOINT LeftShoulder
			{
				OFFSET 0.000000 0.211639 0.000000
				CHANNELS 3 Xrotation Yrotation Zrotation
				JOINT LeftArm
				{
					OFFSET 0.181443 -0.000001 0.000000
					CHANNELS 3 Xrotation Yrotation Zrotation
					JOINT LeftForeArm
					{
						OFFSET 0.295931 -0.000001 0.000000
						CHANNELS 3 Xrotation Yrotation Zrotation
						JOINT LeftHand
						{
							OFFSET 0.230383 -0.000001 0.000000
							CHANNELS 3 Xrotation Yrotation Zrotation
							JOINT LeftHandThumb
							{
								OFFSET 0.000000 0.000000 0.000000
								CHANNELS 3 Xrotation Yrotation Zrotation
								End Site
								{
									OFFSET 0.000000 0.000000 0.106456
								}
							}
							JOINT L_Wrist_End
							{
								OFFSET 0.106456 -0.000000 0.000000
								CHANNELS 3 Xrotation Yrotation Zrotation
								End Site
								{
									OFFSET 0.000000 0.002704 0.000000
								}
							}
						}
					}
				}
			}
			JOINT RightShoulder
			{
				OFFSET 0.000000 0.211639 0.000000
				CHANNELS 3 Xrotation Yrotation Zrotation
				JOINT RightArm
				{
					OFFSET -0.181443 -0.000001 0.000000
					CHANNELS 3 Xrotation Yrotation Zrotation
					JOINT RightForeArm
					{
						OFFSET -0.295931 -0.000001 0.000000
						CHANNELS 3 Xrotation Yrotation Zrotation
						JOINT RightHand
						{
							OFFSET -0.230383 -0.000001 0.000000
							CHANNELS 3 Xrotation Yrotation Zrotation
							JOINT RightHandThumb
							{
								OFFSET 0.000000 0.000000 0.000000
								CHANNELS 3 Xrotation Yrotation Zrotation
								End Site
								{
									OFFSET 0.000000 0.000000 0.106456
								}
							}
							JOINT R_Wrist_End
							{
								OFFSET -0.145845 -0.000001 0.000000
								CHANNELS 3 Xrotation Yrotation Zrotation
								End Site
								{
									OFFSET 0.000000 0.002704 0.000000
								}
							}
						}
					}
				}
			}
		}
	}
}
MOTION
Frames: 11
Frame Time: 0.008333
0.139059 0.879633 -0.660014 -4.570308 -95.332399 -2.962005 5.164099 0.063700 -1.473300 6.442400 0.000001 -0.000000 -16.955996 -10.067899 -4.610300 6.740603 -0.000002 -0.000000 -28.006598 -1.474301 -4.321100 48.367503 -0.000000 -0.000000 -17.585502 0.134099 -2.136001 1.761299 0.000001 0.000000 -3.559200 1.417299 -1.292800 11.066197 -0.245500 -0.088100 2.655299 3.675300 -6.261601 -0.349401 -0.726200 6.454599 19.924499 11.783101 -5.573100 -19.498804 -44.070197 -67.985504 -0.000097 -20.165994 0.000001 -8.473602 -0.361501 -13.699099 0.000001 -0.000000 0.000001 0.000003 -0.000001 0.000000 15.197697 -18.626399 5.043600 -4.880493 40.879399 75.051594 -0.000101 18.849997 -0.000001 -25.033304 -4.325302 11.704803 -0.000000 -0.000000 0.000000 -0.000000 -0.000000 -0.000001 
0.131977 0.878924 -0.661155 -5.003017 -95.345896 -3.410518 5.621800 0.029700 -1.436500 6.426202 -0.000001 -0.000000 -17.290100 -9.970899 -4.562401 6.616501 -0.000003 -0.000001 -27.986596 -1.285000 -4.294500 45.351701 0.000002 -0.000000 -17.119202 0.195100 -1.974100 1.560299 0.000001 -0.000000 -3.472200 1.351300 -1.276700 10.926500 -0.308200 -0.070400 2.559700 3.726400 -6.213199 -0.720500 -0.646900 6.409800 19.916799 11.640401 -5.571101 -19.330108 -43.930298 -67.442012 -0.000104 -20.825196 0.000001 -8.308100 -0.236601 -13.530003 -0.000001 -0.000000 0.000001 -0.000001 -0.000001 0.000001 15.295198 -18.536196 5.069000 -4.521801 41.060597 74.976708 -0.000102 18.771897 0.000001 -25.005999 -4.355201 11.597702 0.000001 0.000000 0.000001 0.000001 -0.000000 -0.000000 
0.124963 0.878119 -0.662775 -6.987427 -95.322400 -5.632031 5.877601 0.037500 -1.127300 6.528100 0.000000 -0.000000 -17.753800 -9.945699 -4.663400 6.332100 0.000000 0.000000 -27.972599 -1.265600 -4.056600 42.050801 -0.000000 -0.000000 -16.409699 0.209701 -1.679000 1.673000 0.000001 -0.000000 -3.619899 1.307200 -1.149000 11.036600 -0.324600 0.128800 2.333698 3.557000 -6.218001 -1.242600 -0.479900 6.321299 20.052998 11.668901 -5.730500 -19.587500 -44.455994 -66.923102 -0.000102 -21.042993 -0.000000 -8.347403 -0.424599 -13.458599 0.000000 -0.000001 0.000000 0.000000 -0.000001 -0.000000 15.121901 -18.652999 4.999500 -4.190704 41.152703 75.009315 -0.000099 18.711196 -0.000000 -24.805398 -4.540200 11.664800 0.000001 0.000000 0.000002 0.000000 0.000000 0.000001 
0.117654 0.877232 -0.663962 -7.411982 -95.324497 -6.061394 6.303299 -0.048500 -1.103900 6.594001 0.000000 -0.000000 -18.095999 -9.827404 -4.425201 6.013101 0.000002 0.000000 -27.740397 -1.269500 -4.118300 38.429899 0.000000 0.000000 -15.523200 0.427899 -1.487201 1.975099 0.000001 -0.000000 -3.547300 1.254300 -1.144200 10.895500 -0.371500 0.154900 2.279299 3.555200 -6.185000 -1.740400 -0.436300 6.303801 19.892294 11.572701 -5.626801 -19.354296 -44.426798 -66.523099 -0.000103 -21.531700 0.000003 -8.197097 -0.353701 -13.344299 0.000002 -0.000000 0.000000 0.000004 -0.000001 0.000001 15.308298 -18.596496 5.046700 -3.931704 41.346598 74.907108 -0.000100 18.610995 -0.000000 -24.705598 -4.541800 11.765702 0.000000 -0.000000 0.000002 0.000000 -0.000000 0.000001 
0.110288 0.876350 -0.665065 -7.996885 -95.324203 -6.670379 6.662001 -0.216900 -1.079000 6.777000 -0.000000 0.000000 -18.465799 -9.624102 -4.244601 5.821701 0.000001 -0.000000 -27.424004 -1.222000 -4.178900 34.770601 0.000000 0.000000 -14.306797 0.704301 -0.734500 1.983800 0.000000 -0.000000 -3.551600 1.224901 -1.091400 10.892004 -0.396100 0.194900 2.230101 3.492400 -6.241401 -2.431100 -0.413500 6.341800 19.928095 11.393201 -5.673700 -19.285498 -44.475501 -65.976308 -0.000100 -21.997495 0.000001 -9.174599 -0.438196 -13.359301 0.000000 0.000001 0.000000 -0.000001 0.000001 0.000000 15.378699 -18.580498 5.078001 -3.636200 41.526297 74.779302 -0.000100 18.578197 -0.000001 -24.708298 -4.707402 11.712704 -0.000000 0.000000 -0.000001 -0.000000 0.000000 -0.000001 
0.102895 0.875315 -0.666528 -9.452121 -95.299799 -8.240323 6.945699 -0.305700 -0.918100 6.964501 0.000000 -0.000000 -18.910600 -9.517502 -4.155901 5.659402 -0.000002 0.000000 -27.068595 -1.237300 -4.145999 30.911298 0.000000 -0.000000 -12.892704 1.046300 0.133400 2.307800 0.000001 0.000000 -3.718101 1.211800 -1.005300 11.120102 -0.396400 0.301800 1.853200 3.413400 -6.232400 -2.842002 -0.397700 6.260401 19.928098 11.412701 -5.739000 -19.426200 -45.068795 -65.491405 -0.000100 -22.151600 0.000000 -9.005902 -0.515101 -13.339802 -0.000002 0.000000 0.000000 -0.000001 -0.000000 0.000000 15.138800 -18.718994 4.970599 -3.370507 41.697195 74.854707 -0.000098 18.411398 -0.000000 -24.295203 -4.690501 11.822399 -0.000000 -0.000000 0.000000 -0.000000 0.000000 0.000001 
0.095370 0.874160 -0.667747 -9.962806 -95.312606 -8.753411 7.324201 -0.428400 -0.908800 7.146699 0.000000 0.000000 -19.299698 -9.318100 -3.891401 5.471201 -0.000001 -0.000000 -26.586402 -1.185300 -4.245699 26.973204 0.000001 0.000000 -11.243199 1.574801 1.300400 2.475799 -0.000000 -0.000000 -3.643500 1.190100 -0.983800 10.938100 -0.410900 0.333600 1.918900 3.296600 -6.232099 -3.666700 -0.353900 6.208600 19.813696 11.368000 -5.632699 -19.395598 -45.052498 -65.291902 -0.000103 -22.413995 -0.000000 -8.421202 -0.476699 -13.474499 -0.000000 -0.000002 0.000001 -0.000001 -0.000003 0.000001 15.376801 -18.668596 4.998399 -3.186908 41.802896 74.751011 -0.000097 18.390896 0.000001 -24.093600 -4.824402 11.847503 0.000000 0.000000 -0.000000 0.000000 0.000000 0.000001 
0.087812 0.873059 -0.668999 -10.761713 -95.279199 -9.568220 7.640800 -0.584600 -0.878500 7.416902 -0.000000 0.000000 -19.690998 -9.117102 -3.711801 5.265801 -0.000000 0.000000 -26.035300 -1.232201 -4.363401 22.916500 -0.000000 -0.000000 -9.223898 2.306999 1.885200 1.999600 0.000000 0.000000 -3.671201 1.173000 -0.934300 10.937300 -0.424200 0.369100 1.884598 3.151000 -6.258301 -4.487201 -0.347100 6.175700 19.882298 11.180701 -5.655700 -19.411502 -45.158199 -64.820298 -0.000102 -22.720095 0.000002 -8.328203 -0.429097 -13.457600 0.000001 -0.000002 0.000002 -0.000001 -0.000002 0.000002 15.482598 -18.650899 5.054701 -2.913215 41.943792 74.565612 -0.000099 18.431199 0.000001 -24.193399 -4.887101 11.864801 0.000000 0.000000 -0.000000 0.000000 0.000000 -0.000000 
0.080068 0.871870 -0.670362 -11.672282 -95.240697 -10.493281 7.978501 -0.687800 -0.834400 7.653199 0.000001 -0.000000 -20.147299 -8.974600 -3.450701 5.374200 -0.000001 0.000000 -25.454703 -1.310100 -4.481500 18.896200 0.000001 0.000000 -7.374902 3.089701 2.779900 2.059900 0.000000 -0.000000 -3.727599 1.176100 -0.885400 10.971499 -0.417800 0.402900 1.767499 3.003400 -6.284500 -5.228400 -0.380500 6.132100 19.871500 11.080900 -5.647800 -19.454508 -45.402897 -64.441209 -0.000100 -22.895399 0.000002 -8.388100 -0.419698 -13.478899 -0.000000 -0.000000 0.000001 -0.000001 -0.000001 0.000001 15.481899 -18.677998 5.052400 -2.646506 42.032704 74.479012 -0.000097 18.406897 0.000001 -24.167001 -4.914701 11.964401 0.000000 -0.000000 0.000001 -0.000000 -0.000000 0.000001 
0.072294 0.870612 -0.671795 -12.718104 -95.192995 -11.554009 8.280101 -0.702800 -0.782800 7.944299 -0.000000 0.000000 -20.536002 -8.924502 -3.158001 5.150000 0.000001 0.000001 -24.866098 -1.446201 -4.587100 14.991102 -0.000000 0.000000 -5.754399 3.813800 3.527900 2.207300 0.000000 0.000000 -3.797800 1.181899 -0.840500 11.028500 -0.409400 0.433600 1.625199 2.834200 -6.288800 -5.997201 -0.416100 6.087300 19.837996 10.998501 -5.657800 -19.490110 -45.675599 -64.058616 -0.000098 -23.041097 -0.000000 -8.400204 -0.438499 -13.461501 0.000002 -0.000000 0.000002 0.000004 -0.000001 0.000001 15.501099 -18.681802 5.072101 -2.433903 42.085597 74.387303 -0.000100 18.367098 -0.000000 -24.059898 -4.979601 12.115101 0.000000 -0.000000 0.000000 0.000000 -0.000000 0.000000 
0.064490 0.869336 -0.673393 -14.089608 -95.097701 -12.948218 8.519301 -0.754000 -0.695800 8.331100 -0.000000 0.000000 -20.968399 -8.885700 -3.023300 4.985499 0.000003 0.000000 -24.293099 -1.566400 -4.677699 11.320698 -0.000000 -0.000000 -4.693498 4.453601 3.882601 2.582899 -0.000000 0.000000 -3.880099 1.176401 -0.799300 11.085099 -0.411700 0.467300 1.441798 2.628100 -6.280401 -6.725301 -0.445300 6.039599 19.807798 10.913501 -5.667001 -19.546405 -45.941201 -63.689110 -0.000102 -23.147796 -0.000000 -8.673001 -0.519499 -13.549001 -0.000002 0.000001 0.000000 -0.000001 0.000002 0.000000 15.512994 -18.666796 5.116500 -2.213801 42.103800 74.279810 -0.000099 18.350893 0.000001 -23.869102 -5.106202 12.229700 -0.000000 -0.000000 0.000001 0.000000 -0.000000 0.000001 
